DataType=double
version=3
OpenSimVersion=4.5.2-2025-05-03-6a4c6ec41
endheader
time	q	/jointset/head_joint/q/speed
0	0.04363323129985824	0
0.01	0.0436019014180084	-0.006265226897996716
0.02	0.04323494318506118	-0.06711764125769197
0.03	0.04226374115459898	-0.1270995309146532
0.04	0.04069730087797657	-0.1861510486934114
0.05	0.03854520978638871	-0.2442156788437173
0.06	0.03554363965448402	-0.3560265250963386
0.07000000000000001	0.03170658890368754	-0.4112917999230822
0.08	0.02732279734405776	-0.4653615891126602
0.09	0.02213046122632572	-0.5729813435097385
0.09999999999999999	0.01614548330794078	-0.6238709579638965
0.11	0.009658389660924804	-0.6733924529552501
0.12	0.002956975286480228	-0.6667299618905898
0.13	-0.00340006281830199	-0.6045254417862891
0.14	-0.009408680659986216	-0.5970542550059194
0.15	-0.01506546001000094	-0.5341661752840785
0.16	-0.02009362690948198	-0.4713468252607791
0.17	-0.02422034584783255	-0.3538981735771931
0.18	-0.02717699341475538	-0.2373605670920564
0.19	-0.02897338109014836	-0.121873970931796
0.2	-0.02934672517739645	0.04721408930348894
0.21	-0.02831285986940466	0.1595342269607729
0.2200000000000001	-0.02643709030873077	0.2155747872193512
0.2300000000000001	-0.02400553874012129	0.2706773221963084
0.2400000000000001	-0.02102783894078985	0.3247913555622883
0.2500000000000001	-0.01751411548765615	0.3778692155821072
0.2600000000000001	-0.01347495540412037	0.4298660962161578
0.2700000000000001	-0.009195344445641438	0.4259536280263275
0.2800000000000001	-0.004957329187812565	0.4215479480391828
0.2900000000000001	-0.001039699932694806	0.3618840969045287
0.3000000000000001	0.002556275816926277	0.357224948434495
0.3100000000000001	0.006103797280737093	0.3521944007368396
0.3200000000000001	0.009325276436966328	0.2920242954000838
0.3300000000000001	0.01194665249138435	0.2321881509188231
0.3400000000000001	0.01397164568576143	0.17276200412797
0.3500000000000001	0.01540472134090339	0.1138188160001487
0.3600000000000002	0.01625105943625538	0.05542854027502211
0.3700000000000002	0.0165165252727702	-0.002341728625711713
0.3800000000000002	0.01620764050115053	-0.05942783052675187
0.3900000000000002	0.01533155340097552	-0.115768614450999
0.4000000000000002	0.01416997506949384	-0.11651924119713
0.4100000000000002	0.0130018415822175	-0.117079488204007
0.4200000000000002	0.01210299636448214	-0.0626680344364054
0.4300000000000002	0.01174588785787286	-0.008745116627940218
0.4400000000000002	0.01192531616465582	0.04462648192360651
0.4500000000000002	0.01290943402974813	0.1521735284790486
0.4600000000000002	0.01496246402967402	0.2583833170460046
0.4700000000000003	0.01807047182304285	0.3631438314110463
0.4800000000000003	0.0219444661042804	0.4115622817259992
0.4900000000000003	0.02657172763917871	0.5137792594383324
0.5000000000000002	0.03221280836024305	0.614301869159365
0.5100000000000002	0.03857633242989465	0.6582506676186203
0.5200000000000002	0.04537336613040411	0.7009934630384488
0.5300000000000002	0.05259172693812217	0.7425060645118422
0.5400000000000003	0.05994503676335401	0.7279801065998472
0.5500000000000003	0.06715005495608424	0.7128513583592371
0.5600000000000003	0.07420095626228085	0.69716049281071
0.5700000000000003	0.08081835392174426	0.6261610633247545
0.5800000000000003	0.08672660163534526	0.5553475043462468
0.5900000000000003	0.09192804013982304	0.4848161462403953
0.6000000000000003	0.09642595584946949	0.4146597716835226
0.6100000000000003	0.09995057990534971	0.2901810498795729
0.6200000000000003	0.1022363591372567	0.1669203435965561
0.6300000000000003	0.1032961728745173	0.04501716079070181
0.6400000000000003	0.1034182285394223	-0.02060893480242879
0.6500000000000004	0.1028886916682631	-0.08528582721360009
0.6600000000000004	0.1017173717538012	-0.1489502553854473
0.6700000000000004	0.09991469590203812	-0.2115419695661486
0.6800000000000004	0.09749167695222592	-0.2730040842717738
0.6900000000000004	0.09445988042504433	-0.3332829597475281
0.7000000000000004	0.09083139219466005	-0.3923281758190684
0.7100000000000004	0.08716671645158849	-0.3405195704805107
0.7200000000000004	0.08402012917966165	-0.2887228155894347
0.7300000000000004	0.08139114080988109	-0.2370121231513416
0.7400000000000004	0.07955249947810997	-0.1306722599171983
0.7500000000000004	0.07877291000703252	-0.02522702570231747
0.7600000000000005	0.07904280438448319	0.07919945875412905
0.7700000000000005	0.08035140083262378	0.18248859635009
0.7800000000000005	0.08268675781847254	0.2845270670473608
0.7900000000000005	0.08576186167226917	0.330420332230373
0.8000000000000005	0.08901802112482192	0.3207338879978111
0.8100000000000005	0.09217648006858238	0.310882582511642
0.8200000000000005	0.09523568696373542	0.3008858660458398
0.8300000000000005	0.09792031653510552	0.2359760650861326
0.8400000000000005	0.09995857116447578	0.1716262940305244
0.8500000000000005	0.1013564284733987	0.107911865867254
0.8600000000000005	0.1021206016963703	0.04490457542543698
0.8700000000000006	0.1019845401075258	-0.07211365218725091
0.8800000000000006	0.1006857046335497	-0.1876225018941965
0.8900000000000006	0.09823978760969379	-0.3015026255337991
0.9000000000000006	0.09466364545396286	-0.4136405739059701
0.9100000000000006	0.08997523979237608	-0.5239287739813174
0.9200000000000006	0.08419357927469397	-0.6322654140777875
0.9300000000000006	0.07733866302636305	-0.7385542318734322
0.9400000000000006	0.06970538889371558	-0.7879183122100399
0.9500000000000006	0.06158618943971598	-0.8357275858552676
0.9600000000000006	0.05299672273123	-0.8819604214867928
0.9700000000000006	0.04422681538647787	-0.8718113031686977
0.9800000000000006	0.03583709193626672	-0.8059326587733129
0.9900000000000007	0.0281073840562428	-0.7398239265403662
1.000000000000001	0.02103948375057439	-0.6735869470993638
1.010000000000001	0.01490814491246265	-0.5525340312342468
1.020000000000001	0.009983803832134335	-0.4322162820817956
1.030000000000001	0.006258354520355386	-0.3127843784019129
1.040000000000001	0.003722214257044625	-0.1943829478474977
1.050000000000001	0.00263834798080365	-0.02236435465180023
1.060000000000001	0.002991054481827893	0.09289720942919637
1.070000000000001	0.004489079462766016	0.2066719172137877
1.080000000000001	0.007116962566215671	0.318841780610982
1.090000000000001	0.01031016114696525	0.3197214782069626
1.100000000000001	0.01350972542231967	0.3201147696382609
1.110000000000001	0.01671086401870853	0.32003630803394
1.120000000000001	0.01963496595410926	0.2647140738111723
1.130000000000001	0.02200690918045803	0.209617788250187
1.140000000000001	0.02355535116184008	0.1000335406308778
1.150000000000001	0.02401300311601406	-0.008514105047383425
1.160000000000001	0.02339085659879895	-0.115900305451673
1.170000000000001	0.02170112179409977	-0.2220062055377407
1.180000000000001	0.01895717062039389	-0.3267183396392601
1.190000000000001	0.01517348284200227	-0.4299286299153482
1.200000000000001	0.01063955724597866	-0.4767479348151565
1.210000000000001	0.005368583555583565	-0.577320595428383
1.220000000000001	-0.0008995564179850781	-0.6761573110072746
1.230000000000001	-0.007873088487448308	-0.7183821255108688
1.240000000000001	-0.01498874968544986	-0.704579743018325
1.250000000000001	-0.02196340545773227	-0.69018443405538
1.260000000000001	-0.02851735610344393	-0.6204488127981013
1.270000000000001	-0.03410066689240505	-0.4960797198379391
1.280000000000001	-0.03844472512904352	-0.3726279787057659
1.290000000000001	-0.04155945344688954	-0.2502431632391769
1.300000000000001	-0.04290830959423815	-0.01949579704242591
1.310000000000001	-0.04196283880352084	0.2085673365275816
1.320000000000001	-0.03875112142810115	0.4336992975117148
1.330000000000001	-0.03357760659960511	0.6008798709255434
1.340000000000001	-0.0267456822982798	0.7653414755013954
1.350000000000001	-0.01855727424298103	0.8721441172108871
1.360000000000001	-0.009312458028427083	0.9765977833821795
1.370000000000001	0.0009648805402647995	1.078623845519544
1.380000000000001	0.01197613310512614	1.123363012871565
1.390000000000001	0.02315137045808415	1.111416912381978
1.400000000000001	0.03392699894110792	1.043450871063114
1.410000000000001	0.04374638118920245	0.9201906343718691
1.420000000000001	0.05233438915659373	0.7972055594839019
1.430000000000001	0.05942065601984221	0.6198783996238642
1.440000000000001	0.06473981424010913	0.4438261241433112
1.450000000000001	0.06830568683212937	0.2692631993160975
1.460000000000001	0.07013419508605576	0.09639477319479334
1.470000000000001	0.07024326740338301	-0.07458291500527028
1.480000000000001	0.06865275080313858	-0.2434824123663866
1.490000000000001	0.06565829133726868	-0.3553379409418089
1.500000000000001	0.06155394011515781	-0.4654342247161173
1.510000000000001	0.05635781235872762	-0.5736671230163767
1.520000000000001	0.05063697011017879	-0.5703645388506083
1.530000000000001	0.04495274976534971	-0.5663435786235759
1.540000000000001	0.03958616240210192	-0.5068455074922216
1.550000000000001	0.03481459912586175	-0.4473529731324384
1.560000000000001	0.03118550861210848	-0.2783782793971677
1.570000000000001	0.02923881355521355	-0.1109141401803807
1.580000000000001	0.02895843249230714	0.05484463840458592
1.590000000000001	0.03060034341747934	0.2734982489568991
1.600000000000001	0.03441267355390559	0.4888765414054579
1.610000000000001	0.04034281602491505	0.6970100565432702
1.620000000000001	0.04808961638316517	0.8521647018526888
1.630000000000001	0.05737457878313297	1.004605762089742
1.640000000000001	0.068169886251656	1.154197751289121
1.650000000000001	0.08017244438940131	1.246027270188955
1.660000000000001	0.09280731135488594	1.28064471734732
1.670000000000001	0.1055053787573767	1.258666206929296
1.680000000000001	0.1174300484417527	1.125983970723992
1.690000000000001	0.12775514899522	0.9387907648463296
1.700000000000001	0.1359397589349632	0.6979369463543001
1.710000000000001	0.1419996429373611	0.51389615097812
1.720000000000001	0.1459531243358026	0.276706443212995
1.730000000000001	0.1475470047870978	0.0420318922351362
1.740000000000001	0.1468077270338091	-0.1898699324642621
1.750000000000001	0.143764246708564	-0.4187540250819906
1.760000000000001	0.1384479141597508	-0.6443864519079228
1.770000000000001	0.1308923639334052	-0.8665443162680017
1.780000000000001	0.1214073688367727	-1.030229393022639
1.790000000000001	0.1105753914047931	-1.135908468705871
1.800000000000001	0.09869991704981687	-1.238903604243843
1.810000000000001	0.08608209146584003	-1.284360672745782
1.820000000000001	0.07329433148243657	-1.272886098292031
1.830000000000001	0.06090267203873777	-1.205149745124307
1.840000000000001	0.04946614418721907	-1.081882398998931
1.850000000000001	0.03953618311445199	-0.9038722817204964
1.860000000000001	0.03165606331742787	-0.6719631103855769
1.870000000000001	0.0260863947875471	-0.4418372871511402
1.880000000000001	0.022858993464914	-0.2035657213074002
1.890000000000001	0.02197985806946866	0.02775968758387998
1.900000000000001	0.02337891232169045	0.2520176715062653
1.910000000000001	0.02698493773359806	0.4691010930045919
1.920000000000001	0.03272570990710456	0.6789159419227815
1.930000000000001	0.0403320589969832	0.842171866043796
1.940000000000002	0.04928246656984213	0.9476955492844872
1.950000000000002	0.05872821835082275	0.9412289615587252
1.960000000000002	0.0681035266139723	0.9336086539492598
1.970000000000002	0.07712312351716766	0.8700953247671204
1.980000000000002	0.0852315889761134	0.7514042519325579
1.990000000000002	0.09160697860754347	0.5235216139964585
